<svg width="28" height="28" viewBox="0 0 28 28" fill="none" xmlns="http://www.w3.org/2000/svg">
<path d="M9.66675 22.375C11.2501 23.2083 12.7501 23.625 14.1667 23.625C15.5834 23.625 17.0626 23.2083 18.6042 22.375C20.1876 21.5417 21.3751 20.5208 22.1667 19.3125C22.1251 18.1458 21.1876 17.1667 19.3542 16.375C17.5209 15.5833 15.7917 15.1875 14.1667 15.1875C12.5417 15.1875 10.8126 15.5833 8.97925 16.375C7.14591 17.125 6.20841 18.1042 6.16675 19.3125C6.95841 20.5208 8.12508 21.5417 9.66675 22.375ZM16.9792 5.875C16.1876 5.08333 15.2501 4.6875 14.1667 4.6875C13.0834 4.6875 12.1459 5.08333 11.3542 5.875C10.5626 6.66667 10.1667 7.60417 10.1667 8.6875C10.1667 9.77083 10.5626 10.7083 11.3542 11.5C12.1459 12.2917 13.0834 12.6875 14.1667 12.6875C15.2501 12.6875 16.1876 12.2917 16.9792 11.5C17.7709 10.7083 18.1667 9.77083 18.1667 8.6875C18.1667 7.60417 17.7709 6.66667 16.9792 5.875ZM4.72925 4.625C7.35425 2 10.5001 0.6875 14.1667 0.6875C17.8334 0.6875 20.9584 2 23.5417 4.625C26.1667 7.20833 27.4792 10.3333 27.4792 14C27.4792 17.6667 26.1667 20.8125 23.5417 23.4375C20.9584 26.0208 17.8334 27.3125 14.1667 27.3125C10.5001 27.3125 7.35425 26.0208 4.72925 23.4375C2.14591 20.8125 0.854248 17.6667 0.854248 14C0.854248 10.3333 2.14591 7.20833 4.72925 4.625Z" fill="#888888"/>
</svg>
