<svg width="128" height="41" viewBox="0 0 128 41" fill="none" xmlns="http://www.w3.org/2000/svg">
<g clip-path="url(#clip0_201_4063)">
<path d="M15.0742 21.9994L12.1985 20.6955L12.2093 19.6705C12.2093 18.9787 11.6009 18.3884 10.3839 17.9067C9.54002 17.5734 8.61644 17.4105 7.60956 17.4105C6.60268 17.4105 5.6791 17.5771 4.8352 17.9067C3.61825 18.3992 3.00978 18.986 3.00978 19.6705V33.0859C3.00978 33.7777 3.61825 34.3681 4.8352 34.8498C5.6791 35.183 6.60268 35.346 7.60956 35.346C8.61644 35.346 9.54002 35.1794 10.3839 34.8498C11.6009 34.3572 12.2093 33.7705 12.2093 33.0859V29.4677H12.3615L15.2264 30.8259V33.0859C15.2264 34.9259 14.0855 36.3167 11.8037 37.262C10.5288 37.7944 9.13075 38.0624 7.61318 38.0624C6.09562 38.0624 4.69757 37.7944 3.42267 37.262C1.14089 36.313 0 34.9222 0 33.0823V19.6669C0 17.827 1.14089 16.4362 3.42267 15.4909C4.69757 14.9584 6.09562 14.6904 7.61318 14.6904C9.13075 14.6904 10.5288 14.9584 11.8037 15.4909C14.0855 16.4362 15.2264 17.827 15.2264 19.6669V21.9994H15.0742Z" fill="#81FE88"/>
<path d="M15.2228 30.8223C15.2228 30.8223 12.6259 29.6995 12.1985 28.4102L12.2094 29.9748L15.2228 30.8223Z" fill="#81FE88"/>
<path d="M12.155 22.6043L15.0308 23.9082L15.02 24.9332C15.02 25.625 15.6284 26.2153 16.8454 26.697C17.6893 27.0303 18.6129 27.1932 19.6197 27.1932C20.623 27.1932 21.5502 27.0266 22.3941 26.697C23.611 26.2045 24.2195 25.6177 24.2195 24.9332V11.5214C24.2195 10.8296 23.611 10.2392 22.3941 9.75753C21.5502 9.42431 20.6266 9.26133 19.6197 9.26133C18.6165 9.26133 17.6893 9.42793 16.8454 9.75753C15.6284 10.2501 15.02 10.8368 15.02 11.5214V15.1396H14.8678L12.0029 13.7814V11.5214C12.0029 9.68147 13.1438 8.29067 15.4256 7.34536C16.7005 6.81294 18.0985 6.54492 19.6161 6.54492C21.1337 6.54492 22.5317 6.81294 23.8066 7.34536C26.0884 8.29067 27.2293 9.68147 27.2293 11.5214V24.9368C27.2293 26.7767 26.0884 28.1675 23.8066 29.1128C22.5317 29.6452 21.1337 29.9133 19.6161 29.9133C18.0985 29.9133 16.7005 29.6452 15.4256 29.1128C13.1438 28.1675 12.0029 26.7767 12.0029 24.9368V22.6043H12.155Z" fill="#81FE88"/>
<path d="M12.0066 13.7812C12.0066 13.7812 14.6035 14.904 15.0309 16.1934L15.02 14.6288L12.0066 13.7812Z" fill="#81FE88"/>
<path d="M44.7773 32.3432V35.1176C44.7773 36.2367 43.9841 37.1132 42.3977 37.7398C41.5393 38.0694 40.5723 38.236 39.4929 38.236C38.4136 38.236 37.4466 38.0694 36.5882 37.7398C35.0018 37.1132 34.2086 36.2367 34.2086 35.1176V26.8416C34.2086 25.7224 35.0018 24.8459 36.5882 24.2193C37.4466 23.8897 38.4136 23.7231 39.4929 23.7231C40.5723 23.7231 41.5393 23.8897 42.3977 24.2193C43.9841 24.8459 44.7773 25.7224 44.7773 26.8416V28.4714L42.3578 29.6159H42.2311V27.2871C42.2311 26.8633 41.9667 26.5446 41.4343 26.3309C40.9055 26.1172 40.2572 26.0122 39.4929 26.0122C38.7287 26.0122 38.0804 26.1172 37.5516 26.3309C37.0228 26.5446 36.7548 26.8597 36.7548 27.2871V34.6721C36.7548 35.0958 37.0192 35.4146 37.5516 35.6282C38.0804 35.8419 38.7287 35.947 39.4929 35.947C40.2572 35.947 40.9055 35.8419 41.4343 35.6282C41.9631 35.4146 42.2311 35.0995 42.2311 34.6721V33.4877L44.6505 32.3432H44.7773Z" fill="#E1E1E1"/>
<path d="M48.4679 35.1176V26.8416C48.4679 25.7224 49.2611 24.8459 50.8475 24.2193C51.7058 23.8897 52.6729 23.7231 53.7522 23.7231C54.8315 23.7231 55.7986 23.8897 56.657 24.2193C58.2433 24.8459 59.0365 25.7224 59.0365 26.8416V35.1176C59.0365 36.2367 58.2433 37.1132 56.657 37.7398C55.7986 38.0694 54.8315 38.236 53.7522 38.236C52.6729 38.236 51.7058 38.0694 50.8475 37.7398C49.2611 37.1132 48.4679 36.2367 48.4679 35.1176ZM51.0141 34.6721C51.0141 35.0958 51.2785 35.4146 51.8109 35.6282C52.3433 35.8419 52.988 35.947 53.7522 35.947C54.5164 35.947 55.1647 35.8419 55.6935 35.6282C56.2223 35.4146 56.4903 35.0995 56.4903 34.6721V27.2871C56.4903 26.8633 56.226 26.5446 55.6935 26.3309C55.1611 26.1172 54.5164 26.0122 53.7522 26.0122C52.988 26.0122 52.3397 26.1172 51.8109 26.3309C51.2821 26.5446 51.0141 26.8597 51.0141 27.2871V34.6721Z" fill="#E1E1E1"/>
<path d="M62.7236 38.4932V26.8416C62.7236 25.7043 63.5168 24.8314 65.1032 24.2193C65.9616 23.8897 66.9286 23.7231 68.008 23.7231C69.0873 23.7231 70.0543 23.8897 70.9127 24.2193C72.4991 24.8314 73.2923 25.7043 73.2923 26.8416V37.345L70.8729 37.403H70.7461V27.2834C70.7461 26.8597 70.4817 26.541 69.9493 26.3273C69.4205 26.1136 68.7722 26.0085 68.008 26.0085C67.2437 26.0085 66.5954 26.1136 66.0666 26.3273C65.5378 26.541 65.2698 26.8561 65.2698 27.2834V37.3414L62.8504 38.4859H62.7236V38.4932Z" fill="#E1E1E1"/>
<path d="M76.9829 38.4932V26.8416C76.9829 25.7043 77.7761 24.8314 79.3625 24.2193C80.2209 23.8897 81.1879 23.7231 82.2672 23.7231C83.3465 23.7231 84.3136 23.8897 85.172 24.2193C86.7584 24.8314 87.5515 25.7043 87.5515 26.8416V37.345L85.1321 38.4895H85.0054V27.2834C85.0054 26.8597 84.741 26.541 84.2086 26.3273C83.6798 26.1136 83.0314 26.0085 82.2672 26.0085C81.503 26.0085 80.8547 26.1136 80.3259 26.3273C79.7971 26.541 79.5291 26.8561 79.5291 27.2834V37.3414L77.1097 38.4859H76.9829V38.4932Z" fill="#E1E1E1"/>
<path d="M101.811 32.3432V35.1176C101.811 36.2367 101.018 37.1132 99.4312 37.7398C98.5729 38.0694 97.6058 38.236 96.5265 38.236C95.4472 38.236 94.4801 38.0694 93.6218 37.7398C92.0354 37.1132 91.2422 36.2367 91.2422 35.1176V26.8416C91.2422 25.7224 92.0354 24.8459 93.6218 24.2193C94.4801 23.8897 95.4472 23.7231 96.5265 23.7231C97.6058 23.7231 98.5729 23.8897 99.4312 24.2193C101.018 24.8459 101.811 25.7224 101.811 26.8416V28.4714L93.7884 34.6395C93.7884 35.0741 94.0528 35.4001 94.5852 35.6174C95.114 35.8347 95.7623 35.9434 96.5265 35.9434C97.2907 35.9434 97.939 35.8383 98.4678 35.6246C98.9966 35.4109 99.2646 35.0958 99.2646 34.6685V33.4841L101.684 32.3396H101.811V32.3432ZM93.7884 31.9883L99.2646 27.7869V27.4573C99.2646 26.9756 99.0002 26.617 98.4678 26.378C97.9354 26.1389 97.2907 26.0194 96.5265 26.0194C95.7623 26.0194 95.114 26.1244 94.5852 26.3381C94.0564 26.5518 93.7884 26.8669 93.7884 27.2943V31.9919V31.9883Z" fill="#E1E1E1"/>
<path d="M116.067 32.3432V35.1176C116.067 36.2367 115.273 37.1132 113.687 37.7398C112.829 38.0694 111.862 38.236 110.782 38.236C109.703 38.236 108.736 38.0694 107.878 37.7398C106.291 37.1132 105.498 36.2367 105.498 35.1176V26.8416C105.498 25.7224 106.291 24.8459 107.878 24.2193C108.736 23.8897 109.703 23.7231 110.782 23.7231C111.862 23.7231 112.829 23.8897 113.687 24.2193C115.273 24.8459 116.067 25.7224 116.067 26.8416V28.4714L113.647 29.6159H113.521V27.2871C113.521 26.8633 113.256 26.5446 112.724 26.3309C112.191 26.1172 111.547 26.0122 110.782 26.0122C110.018 26.0122 109.37 26.1172 108.841 26.3309C108.312 26.5446 108.044 26.8597 108.044 27.2871V34.6721C108.044 35.0958 108.309 35.4146 108.841 35.6282C109.373 35.8419 110.018 35.947 110.782 35.947C111.547 35.947 112.195 35.8419 112.724 35.6282C113.252 35.4146 113.521 35.0995 113.521 34.6721V33.4877L115.94 32.3432H116.067Z" fill="#E1E1E1"/>
<path d="M121.438 38.4934V26.2949H118.164V26.1681L119.196 23.9769H121.438V19.3916L123.857 18.2471H123.984V23.9769H127.258V24.1036L126.226 26.2949H123.984V37.3488L121.565 38.4934H121.438Z" fill="#E1E1E1"/>
<path d="M44.7736 14.5961V17.3705C44.7736 18.4897 43.9804 19.3662 42.394 19.9927C41.5356 20.3223 40.5686 20.4889 39.4893 20.4889C38.41 20.4889 37.4429 20.3223 36.5845 19.9927C34.9981 19.3662 34.205 18.4897 34.205 17.3705V9.09451C34.205 7.97535 34.9981 7.09886 36.5845 6.47227C37.4429 6.14268 38.41 5.97607 39.4893 5.97607C40.5686 5.97607 41.5356 6.14268 42.394 6.47227C43.9804 7.09886 44.7736 7.97535 44.7736 9.09451V10.7244L42.3542 11.8689H42.2274V9.54C42.2274 9.11624 41.963 8.79752 41.4306 8.58383C40.9018 8.37013 40.2535 8.2651 39.4893 8.2651C38.7251 8.2651 38.0767 8.37013 37.5479 8.58383C37.0192 8.79752 36.7511 9.11262 36.7511 9.54V16.925C36.7511 17.3488 37.0155 17.6675 37.5479 17.8812C38.0767 18.0949 38.7251 18.1999 39.4893 18.1999C40.2535 18.1999 40.9018 18.0949 41.4306 17.8812C41.9594 17.6675 42.2274 17.3524 42.2274 16.925V15.7407L44.6468 14.5961H44.7736Z" fill="#888888"/>
<path d="M48.4642 17.3705V9.09451C48.4642 7.97535 49.2574 7.09886 50.8438 6.47227C51.7022 6.14268 52.6692 5.97607 53.7485 5.97607C54.8279 5.97607 55.7949 6.14268 56.6533 6.47227C58.2397 7.09886 59.0329 7.97535 59.0329 9.09451V17.3705C59.0329 18.4897 58.2397 19.3662 56.6533 19.9927C55.7949 20.3223 54.8279 20.4889 53.7485 20.4889C52.6692 20.4889 51.7022 20.3223 50.8438 19.9927C49.2574 19.3662 48.4642 18.4897 48.4642 17.3705ZM51.0104 16.925C51.0104 17.3488 51.2748 17.6675 51.8072 17.8812C52.3396 18.0949 52.9843 18.1999 53.7485 18.1999C54.5128 18.1999 55.1611 18.0949 55.6899 17.8812C56.2187 17.6675 56.4867 17.3524 56.4867 16.925V9.54C56.4867 9.11624 56.2223 8.79752 55.6899 8.58383C55.1575 8.37013 54.5128 8.2651 53.7485 8.2651C52.9843 8.2651 52.336 8.37013 51.8072 8.58383C51.2784 8.79752 51.0104 9.11262 51.0104 9.54V16.925Z" fill="#888888"/>
<path d="M62.72 17.3707V9.09471C62.72 7.95744 63.5132 7.08457 65.0995 6.47247C65.9579 6.14288 66.925 5.97628 68.0043 5.97628C69.0148 5.97628 69.9275 6.12115 70.7424 6.4109V1.64451L73.1618 0.5H73.2886V17.3707C73.2886 18.508 72.4954 19.3808 70.909 19.9929C70.0506 20.3225 69.0836 20.4891 68.0043 20.4891C66.925 20.4891 65.9579 20.3225 65.0995 19.9929C63.5132 19.3664 62.72 18.4899 62.72 17.3707ZM65.2661 16.9252C65.2661 17.349 65.5305 17.6677 66.063 17.8814C66.5918 18.0951 67.2401 18.2001 68.0043 18.2001C68.7685 18.2001 69.4168 18.0951 69.9456 17.8814C70.4744 17.6677 70.7424 17.3526 70.7424 16.9252V9.5402C70.7424 9.11644 70.478 8.79772 69.9456 8.58403C69.4168 8.37034 68.7685 8.2653 68.0043 8.2653C67.2401 8.2653 66.5918 8.37034 66.063 8.58403C65.5342 8.79772 65.2661 9.11282 65.2661 9.5402V16.9252Z" fill="#888888"/>
<path d="M88.1853 14.5961V17.3705C88.1853 18.4897 87.3921 19.3662 85.8058 19.9927C84.9474 20.3223 83.9803 20.4889 82.901 20.4889C81.8217 20.4889 80.8547 20.3223 79.9963 19.9927C78.4099 19.3662 77.6167 18.4897 77.6167 17.3705V9.09451C77.6167 7.97535 78.4099 7.09886 79.9963 6.47227C80.8547 6.14268 81.8217 5.97607 82.901 5.97607C83.9803 5.97607 84.9474 6.14268 85.8058 6.47227C87.3921 7.09886 88.1853 7.97535 88.1853 9.09451V10.7244L80.1629 16.8924C80.1629 17.327 80.4273 17.653 80.9597 17.8703C81.4885 18.0876 82.1368 18.1963 82.901 18.1963C83.6652 18.1963 84.3135 18.0913 84.8423 17.8776C85.3711 17.6639 85.6392 17.3488 85.6392 16.9214V15.737L88.0586 14.5925H88.1853V14.5961ZM80.1629 14.2412L85.6392 10.0398V9.71023C85.6392 9.22852 85.3748 8.86995 84.8423 8.63091C84.3135 8.39187 83.6652 8.27234 82.901 8.27234C82.1368 8.27234 81.4885 8.37738 80.9597 8.59107C80.4309 8.80476 80.1629 9.11986 80.1629 9.54724V14.2448V14.2412Z" fill="#888888"/>
<path d="M76.9903 36.7656V37.059C76.9903 38.7323 73.2706 38.5693 73.2706 37.059V36.7656H70.7317V37.5045C70.7317 38.6381 71.5249 39.511 73.1076 40.1195C74.4151 40.6229 75.8385 40.6265 77.1569 40.1195C78.7397 39.511 79.5292 38.6381 79.5292 37.5045V36.7656H76.9903Z" fill="#81FE88"/>
</g>
<defs>
<clipPath id="clip0_201_4063">
<rect width="127.258" height="40" fill="white" transform="translate(0 0.5)"/>
</clipPath>
</defs>
</svg>
